<svg width="16" height="16" viewBox="0 0 16 16" fill="none" xmlns="http://www.w3.org/2000/svg">
<path d="M15.1982 1.03143V11.8644C15.1982 12.0854 15.1104 12.2974 14.9542 12.4537C14.7979 12.6099 14.5859 12.6977 14.3649 12.6977C14.1439 12.6977 13.932 12.6099 13.7757 12.4537C13.6194 12.2974 13.5316 12.0854 13.5316 11.8644V3.04282L1.62158 14.9539C1.46522 15.1103 1.25314 15.1981 1.03201 15.1981C0.810883 15.1981 0.59881 15.1103 0.442448 14.9539C0.286086 14.7976 0.198242 14.5855 0.198242 14.3643C0.198242 14.1432 0.286086 13.9311 0.442448 13.7748L12.3535 1.86474H3.53194C3.31093 1.86474 3.09897 1.77694 2.9427 1.62066C2.78642 1.46439 2.69863 1.25243 2.69863 1.03143C2.69863 0.810421 2.78642 0.598466 2.9427 0.44219C3.09897 0.285915 3.31093 0.19812 3.53194 0.19812H14.3649C14.5859 0.19812 14.7979 0.285915 14.9542 0.44219C15.1104 0.598466 15.1982 0.810421 15.1982 1.03143Z" fill="#2E3192"/>
</svg>
